<?xml version="1.0" encoding="UTF-8" standalone="no"?>
<!-- Created with Inkscape (http://www.inkscape.org/) -->

<svg
   width="210mm"
   height="297mm"
   viewBox="0 0 210 297"
   version="1.1"
   id="svg1"
   inkscape:version="1.3.2 (091e20e, 2023-11-25, custom)"
   sodipodi:docname="inomeado.svg"
   xml:space="preserve"
   inkscape:export-filename="game-s-tome-logo.svg"
   inkscape:export-xdpi="96"
   inkscape:export-ydpi="96"
   xmlns:inkscape="http://www.inkscape.org/namespaces/inkscape"
   xmlns:sodipodi="http://sodipodi.sourceforge.net/DTD/sodipodi-0.dtd"
   xmlns="http://www.w3.org/2000/svg"
   xmlns:svg="http://www.w3.org/2000/svg"><sodipodi:namedview
     id="namedview1"
     pagecolor="#ffffff"
     bordercolor="#000000"
     borderopacity="0"
     inkscape:showpageshadow="2"
     inkscape:pageopacity="0"
     inkscape:pagecheckerboard="0"
     inkscape:deskcolor="#474747"
     inkscape:document-units="mm"
     inkscape:zoom="0.33576885"
     inkscape:cx="297.82394"
     inkscape:cy="689.46241"
     inkscape:window-width="1366"
     inkscape:window-height="697"
     inkscape:window-x="-8"
     inkscape:window-y="-8"
     inkscape:window-maximized="1"
     inkscape:current-layer="layer1"
     showguides="true" /><defs
     id="defs1" /><g
     inkscape:label="Camada 1"
     inkscape:groupmode="layer"
     id="layer1"><path
       d="M 191.2474,213.45969 V 76.634813 L 160.68143,46.068863 H 40.078147 V 225.42959 h 7.781399 116.732974 c 6.52228,0 12.60555,-1.76099 17.85493,-4.79372 0.52549,-0.35296 1.06705,-0.68136 1.62295,-0.98416 2.66494,-1.73566 5.07087,-3.82743 7.177,-6.19202 z"
       style="fill:#363d52;stroke:#000000;stroke-width:2.16594;stroke-linejoin:round;paint-order:markers fill stroke"
       id="path35" /><path
       d="m 47.859611,37.359477 c -2.677633,0 -5.275243,0.314461 -7.781437,0.868681 C 24.089522,41.763875 12.19047,55.945229 12.19047,73.027584 v 41.507026 75.22693 41.506 c 0,17.08242 11.899052,31.26407 27.887704,34.79994 2.506204,0.55425 5.103783,0.8692 7.781437,0.8692 H 164.59254 c 7.95457,0 15.25946,-2.61041 21.17907,-6.97994 0.20234,-0.1493 0.40292,-0.30046 0.60203,-0.45372 1.95393,-1.50383 1.38636,-3.38473 -0.81442,-4.48913 -0.69276,-0.34763 -1.36657,-0.73487 -2.01745,-1.16013 -0.56786,0.85794 -1.22402,1.65076 -1.96887,2.35851 -2.43985,2.31827 -5.72416,3.75842 -9.37101,3.75842 H 40.078174 c -7.54524,0 -13.619841,-6.07409 -13.619841,-13.61932 v -7.30188 c 0,-7.54525 6.074601,-13.61984 13.619841,-13.61984 V 46.069023 H 160.68167 l 30.56557,30.565576 V 213.45984 c 5.6019,-6.28943 9.0134,-14.57297 9.0134,-23.6983 V 114.53461 85.648002 73.027584 c 0,-9.12214 -3.41898,-17.396903 -9.0134,-23.691061 -1.02961,-1.158369 -2.12596,-2.252485 -3.29747,-3.2675 -6.25171,-5.416582 -14.39821,-8.709546 -23.35723,-8.709546 H 151.9716 Z"
       style="fill:#88b6dd;stroke:#000000;stroke-width:2.16594;stroke-linejoin:round;paint-order:markers fill stroke"
       id="path74" /><path
       d="m 182.44745,220.63587 c -5.24938,3.03273 -11.33265,4.79372 -17.85493,4.79372 H 47.859546 40.078147 c -7.545302,0 -13.620046,6.07474 -13.620046,13.62005 v 7.30171 c 0,7.54529 6.074744,13.61925 13.620046,13.61925 H 172.20204 c 3.64687,0 6.93092,-1.4401 9.37077,-3.75839 0.74487,-0.70775 1.40127,-1.50053 1.96913,-2.35849 -5.71308,-3.76151 -9.17158,-10.12662 -9.21887,-16.96669 0.0718,-3.68869 1.1386,-7.28954 3.08762,-10.42211 1.29514,-2.24408 3.00429,-4.22208 5.03676,-5.82905 z"
       style="fill:#ffffff;fill-opacity:1;stroke:#000000;stroke-width:2.16594;stroke-linejoin:round;paint-order:markers fill stroke"
       id="path24" /><path
       d="m 92.0689,130.963 c -7.813511,0 -14.156607,6.34357 -14.156607,14.15665 v 14.05686 H 63.858341 c -7.813075,0 -14.156625,6.34357 -14.156625,14.15665 0,7.81311 6.34355,14.15657 14.156625,14.15657 h 14.053952 v 14.05397 c 0,7.81308 6.343096,14.15665 14.156607,14.15665 7.813065,0 14.15665,-6.34357 14.15665,-14.15665 v -14.05397 h 14.05684 c 7.81359,0 14.15665,-6.34346 14.15665,-14.15657 0,-7.81308 -6.34306,-14.15665 -14.15665,-14.15665 h -14.05683 v -14.05686 c 0,-7.81308 -6.343595,-14.15665 -14.15666,-14.15665 z"
       style="clip-rule:evenodd;fill:#ffffff;fill-opacity:1;fill-rule:evenodd;stroke:#000000;stroke-width:3;stroke-linejoin:round;stroke-miterlimit:2;stroke-dasharray:none"
       id="path71" /><path
       d="m 141.18772,108.53092 c 7.70767,0 13.9635,6.25619 13.9635,13.96344 0,7.70762 -6.25583,13.96624 -13.9635,13.96624 -7.70761,0 -13.96619,-6.25862 -13.96619,-13.96624 0,-7.70725 6.25858,-13.96344 13.96619,-13.96344 z"
       style="clip-rule:evenodd;fill:#ffffff;fill-opacity:1;fill-rule:evenodd;stroke:#000000;stroke-width:3;stroke-linejoin:round;stroke-miterlimit:2;stroke-dasharray:none"
       id="path68" /><path
       d="m 166.71404,83.004602 c 7.70766,0 13.96349,6.25858 13.96349,13.9662 0,7.707658 -6.25583,13.963438 -13.96349,13.963438 -7.70708,0 -13.9662,-6.25578 -13.9662,-13.963438 0,-7.70762 6.25912,-13.9662 13.9662,-13.9662 z"
       style="clip-rule:evenodd;fill:#88b6dd;fill-opacity:1;fill-rule:evenodd;stroke:#000000;stroke-width:3;stroke-linejoin:round;stroke-miterlimit:2;stroke-dasharray:none"
       id="path67" /><path
       d="m 115.66139,83.004602 c -7.70767,0 -13.96345,6.25858 -13.96345,13.9662 0,7.707658 6.25578,13.963438 13.96345,13.963438 7.70725,0 13.96621,-6.25578 13.96621,-13.963438 0,-7.70762 -6.25896,-13.9662 -13.96621,-13.9662 z"
       style="clip-rule:evenodd;fill:#ffffff;fill-opacity:1;fill-rule:evenodd;stroke:#000000;stroke-width:3;stroke-linejoin:round;stroke-miterlimit:2;stroke-dasharray:none"
       id="path69" /><path
       d="m 141.18772,57.478222 c -7.70761,0 -13.96619,6.25862 -13.96619,13.96624 0,7.70725 6.25858,13.96619 13.96619,13.96619 7.70767,0 13.9635,-6.25894 13.9635,-13.96619 0,-7.70762 -6.25583,-13.96624 -13.9635,-13.96624 z"
       style="clip-rule:evenodd;fill:#88b6dd;fill-opacity:1;fill-rule:evenodd;stroke:#000000;stroke-width:3;stroke-linejoin:round;stroke-miterlimit:2;stroke-dasharray:none"
       id="path70" /></g></svg>
